<svg xmlns="http://www.w3.org/2000/svg" viewBox="0 0 720 860" role="img" aria-label="Viet QR Vietcombank Huynh Co Kho"><rect width="720" height="860" rx="30" fill="#f7fff1"/><rect x="24" y="24" width="672" height="812" rx="26" fill="#fff"/><text x="360" y="60" text-anchor="middle" font-family="Arial,Helvetica,sans-serif" font-size="30" font-weight="800" fill="#007a4d">Vietcombank</text><rect x="32" y="86" width="656" height="656" rx="10" fill="#fff"/><path d="M96.00 150.00h112.00v16.00h-112.00zM256.00 150.00h16.00v16.00h-16.00zM320.00 150.00h48.00v16.00h-48.00zM384.00 150.00h16.00v16.00h-16.00zM416.00 150.00h16.00v16.00h-16.00zM448.00 150.00h16.00v16.00h-16.00zM480.00 150.00h16.00v16.00h-16.00zM512.00 150.00h112.00v16.00h-112.00zM96.00 166.00h16.00v16.00h-16.00zM192.00 166.00h16.00v16.00h-16.00zM224.00 166.00h32.00v16.00h-32.00zM272.00 166.00h16.00v16.00h-16.00zM304.00 166.00h16.00v16.00h-16.00zM352.00 166.00h32.00v16.00h-32.00zM400.00 166.00h16.00v16.00h-16.00zM432.00 166.00h48.00v16.00h-48.00zM512.00 166.00h16.00v16.00h-16.00zM608.00 166.00h16.00v16.00h-16.00zM96.00 182.00h16.00v16.00h-16.00zM128.00 182.00h48.00v16.00h-48.00zM192.00 182.00h16.00v16.00h-16.00zM256.00 182.00h16.00v16.00h-16.00zM352.00 182.00h16.00v16.00h-16.00zM384.00 182.00h16.00v16.00h-16.00zM448.00 182.00h16.00v16.00h-16.00zM480.00 182.00h16.00v16.00h-16.00zM512.00 182.00h16.00v16.00h-16.00zM544.00 182.00h48.00v16.00h-48.00zM608.00 182.00h16.00v16.00h-16.00zM96.00 198.00h16.00v16.00h-16.00zM128.00 198.00h48.00v16.00h-48.00zM192.00 198.00h16.00v16.00h-16.00zM256.00 198.00h16.00v16.00h-16.00zM288.00 198.00h32.00v16.00h-32.00zM368.00 198.00h16.00v16.00h-16.00zM432.00 198.00h16.00v16.00h-16.00zM464.00 198.00h32.00v16.00h-32.00zM512.00 198.00h16.00v16.00h-16.00zM544.00 198.00h48.00v16.00h-48.00zM608.00 198.00h16.00v16.00h-16.00zM96.00 214.00h16.00v16.00h-16.00zM128.00 214.00h48.00v16.00h-48.00zM192.00 214.00h16.00v16.00h-16.00zM224.00 214.00h32.00v16.00h-32.00zM272.00 214.00h16.00v16.00h-16.00zM304.00 214.00h16.00v16.00h-16.00zM384.00 214.00h16.00v16.00h-16.00zM416.00 214.00h16.00v16.00h-16.00zM448.00 214.00h48.00v16.00h-48.00zM512.00 214.00h16.00v16.00h-16.00zM544.00 214.00h48.00v16.00h-48.00zM608.00 214.00h16.00v16.00h-16.00zM96.00 230.00h16.00v16.00h-16.00zM192.00 230.00h16.00v16.00h-16.00zM240.00 230.00h64.00v16.00h-64.00zM320.00 230.00h16.00v16.00h-16.00zM368.00 230.00h48.00v16.00h-48.00zM432.00 230.00h16.00v16.00h-16.00zM512.00 230.00h16.00v16.00h-16.00zM608.00 230.00h16.00v16.00h-16.00zM96.00 246.00h112.00v16.00h-112.00zM224.00 246.00h16.00v16.00h-16.00zM256.00 246.00h16.00v16.00h-16.00zM288.00 246.00h16.00v16.00h-16.00zM320.00 246.00h16.00v16.00h-16.00zM352.00 246.00h16.00v16.00h-16.00zM384.00 246.00h16.00v16.00h-16.00zM416.00 246.00h16.00v16.00h-16.00zM448.00 246.00h16.00v16.00h-16.00zM480.00 246.00h16.00v16.00h-16.00zM512.00 246.00h112.00v16.00h-112.00zM240.00 262.00h48.00v16.00h-48.00zM320.00 262.00h16.00v16.00h-16.00zM352.00 262.00h16.00v16.00h-16.00zM384.00 262.00h16.00v16.00h-16.00zM416.00 262.00h32.00v16.00h-32.00zM464.00 262.00h32.00v16.00h-32.00zM96.00 278.00h16.00v16.00h-16.00zM128.00 278.00h16.00v16.00h-16.00zM160.00 278.00h16.00v16.00h-16.00zM192.00 278.00h16.00v16.00h-16.00zM240.00 278.00h32.00v16.00h-32.00zM288.00 278.00h16.00v16.00h-16.00zM320.00 278.00h32.00v16.00h-32.00zM368.00 278.00h64.00v16.00h-64.00zM448.00 278.00h16.00v16.00h-16.00zM544.00 278.00h16.00v16.00h-16.00zM592.00 278.00h16.00v16.00h-16.00zM128.00 294.00h48.00v16.00h-48.00zM208.00 294.00h16.00v16.00h-16.00zM240.00 294.00h32.00v16.00h-32.00zM288.00 294.00h16.00v16.00h-16.00zM336.00 294.00h16.00v16.00h-16.00zM416.00 294.00h32.00v16.00h-32.00zM512.00 294.00h16.00v16.00h-16.00zM544.00 294.00h32.00v16.00h-32.00zM96.00 310.00h16.00v16.00h-16.00zM144.00 310.00h16.00v16.00h-16.00zM176.00 310.00h112.00v16.00h-112.00zM304.00 310.00h16.00v16.00h-16.00zM336.00 310.00h48.00v16.00h-48.00zM432.00 310.00h16.00v16.00h-16.00zM464.00 310.00h64.00v16.00h-64.00zM560.00 310.00h16.00v16.00h-16.00zM592.00 310.00h32.00v16.00h-32.00zM112.00 326.00h16.00v16.00h-16.00zM208.00 326.00h16.00v16.00h-16.00zM240.00 326.00h16.00v16.00h-16.00zM352.00 326.00h16.00v16.00h-16.00zM400.00 326.00h16.00v16.00h-16.00zM448.00 326.00h32.00v16.00h-32.00zM512.00 326.00h64.00v16.00h-64.00zM592.00 326.00h32.00v16.00h-32.00zM112.00 342.00h16.00v16.00h-16.00zM192.00 342.00h16.00v16.00h-16.00zM240.00 342.00h64.00v16.00h-64.00zM336.00 342.00h16.00v16.00h-16.00zM448.00 342.00h16.00v16.00h-16.00zM480.00 342.00h16.00v16.00h-16.00zM512.00 342.00h16.00v16.00h-16.00zM544.00 342.00h16.00v16.00h-16.00zM592.00 342.00h32.00v16.00h-32.00zM96.00 358.00h32.00v16.00h-32.00zM240.00 358.00h80.00v16.00h-80.00zM336.00 358.00h16.00v16.00h-16.00zM368.00 358.00h16.00v16.00h-16.00zM400.00 358.00h16.00v16.00h-16.00zM432.00 358.00h32.00v16.00h-32.00zM480.00 358.00h48.00v16.00h-48.00zM544.00 358.00h16.00v16.00h-16.00zM592.00 358.00h16.00v16.00h-16.00zM96.00 374.00h48.00v16.00h-48.00zM160.00 374.00h48.00v16.00h-48.00zM256.00 374.00h16.00v16.00h-16.00zM304.00 374.00h32.00v16.00h-32.00zM384.00 374.00h16.00v16.00h-16.00zM416.00 374.00h16.00v16.00h-16.00zM448.00 374.00h48.00v16.00h-48.00zM512.00 374.00h16.00v16.00h-16.00zM544.00 374.00h16.00v16.00h-16.00zM608.00 374.00h16.00v16.00h-16.00zM96.00 390.00h32.00v16.00h-32.00zM144.00 390.00h32.00v16.00h-32.00zM224.00 390.00h16.00v16.00h-16.00zM256.00 390.00h64.00v16.00h-64.00zM336.00 390.00h16.00v16.00h-16.00zM368.00 390.00h16.00v16.00h-16.00zM432.00 390.00h16.00v16.00h-16.00zM496.00 390.00h16.00v16.00h-16.00zM528.00 390.00h80.00v16.00h-80.00zM160.00 406.00h16.00v16.00h-16.00zM192.00 406.00h16.00v16.00h-16.00zM224.00 406.00h32.00v16.00h-32.00zM272.00 406.00h16.00v16.00h-16.00zM368.00 406.00h16.00v16.00h-16.00zM400.00 406.00h16.00v16.00h-16.00zM432.00 406.00h32.00v16.00h-32.00zM496.00 406.00h80.00v16.00h-80.00zM608.00 406.00h16.00v16.00h-16.00zM112.00 422.00h16.00v16.00h-16.00zM176.00 422.00h16.00v16.00h-16.00zM208.00 422.00h32.00v16.00h-32.00zM272.00 422.00h16.00v16.00h-16.00zM304.00 422.00h32.00v16.00h-32.00zM352.00 422.00h64.00v16.00h-64.00zM464.00 422.00h16.00v16.00h-16.00zM528.00 422.00h16.00v16.00h-16.00zM608.00 422.00h16.00v16.00h-16.00zM112.00 438.00h64.00v16.00h-64.00zM192.00 438.00h64.00v16.00h-64.00zM272.00 438.00h32.00v16.00h-32.00zM320.00 438.00h16.00v16.00h-16.00zM384.00 438.00h16.00v16.00h-16.00zM416.00 438.00h16.00v16.00h-16.00zM448.00 438.00h16.00v16.00h-16.00zM480.00 438.00h16.00v16.00h-16.00zM512.00 438.00h16.00v16.00h-16.00zM544.00 438.00h16.00v16.00h-16.00zM576.00 438.00h48.00v16.00h-48.00zM112.00 454.00h32.00v16.00h-32.00zM160.00 454.00h16.00v16.00h-16.00zM256.00 454.00h48.00v16.00h-48.00zM336.00 454.00h16.00v16.00h-16.00zM368.00 454.00h80.00v16.00h-80.00zM496.00 454.00h16.00v16.00h-16.00zM528.00 454.00h48.00v16.00h-48.00zM592.00 454.00h16.00v16.00h-16.00zM96.00 470.00h64.00v16.00h-64.00zM192.00 470.00h32.00v16.00h-32.00zM272.00 470.00h48.00v16.00h-48.00zM352.00 470.00h16.00v16.00h-16.00zM384.00 470.00h32.00v16.00h-32.00zM432.00 470.00h64.00v16.00h-64.00zM512.00 470.00h16.00v16.00h-16.00zM544.00 470.00h16.00v16.00h-16.00zM576.00 470.00h16.00v16.00h-16.00zM608.00 470.00h16.00v16.00h-16.00zM160.00 486.00h32.00v16.00h-32.00zM224.00 486.00h16.00v16.00h-16.00zM256.00 486.00h16.00v16.00h-16.00zM304.00 486.00h96.00v16.00h-96.00zM480.00 486.00h32.00v16.00h-32.00zM560.00 486.00h16.00v16.00h-16.00zM592.00 486.00h16.00v16.00h-16.00zM96.00 502.00h16.00v16.00h-16.00zM128.00 502.00h32.00v16.00h-32.00zM192.00 502.00h48.00v16.00h-48.00zM256.00 502.00h112.00v16.00h-112.00zM384.00 502.00h32.00v16.00h-32.00zM512.00 502.00h64.00v16.00h-64.00zM608.00 502.00h16.00v16.00h-16.00zM112.00 518.00h16.00v16.00h-16.00zM144.00 518.00h16.00v16.00h-16.00zM256.00 518.00h48.00v16.00h-48.00zM320.00 518.00h16.00v16.00h-16.00zM352.00 518.00h112.00v16.00h-112.00zM480.00 518.00h16.00v16.00h-16.00zM528.00 518.00h16.00v16.00h-16.00zM96.00 534.00h16.00v16.00h-16.00zM128.00 534.00h32.00v16.00h-32.00zM192.00 534.00h32.00v16.00h-32.00zM240.00 534.00h48.00v16.00h-48.00zM304.00 534.00h64.00v16.00h-64.00zM384.00 534.00h16.00v16.00h-16.00zM432.00 534.00h16.00v16.00h-16.00zM480.00 534.00h144.00v16.00h-144.00zM224.00 550.00h32.00v16.00h-32.00zM336.00 550.00h32.00v16.00h-32.00zM432.00 550.00h64.00v16.00h-64.00zM544.00 550.00h48.00v16.00h-48.00zM96.00 566.00h112.00v16.00h-112.00zM240.00 566.00h16.00v16.00h-16.00zM272.00 566.00h32.00v16.00h-32.00zM320.00 566.00h16.00v16.00h-16.00zM352.00 566.00h32.00v16.00h-32.00zM400.00 566.00h64.00v16.00h-64.00zM480.00 566.00h16.00v16.00h-16.00zM512.00 566.00h16.00v16.00h-16.00zM544.00 566.00h16.00v16.00h-16.00zM608.00 566.00h16.00v16.00h-16.00zM96.00 582.00h16.00v16.00h-16.00zM192.00 582.00h16.00v16.00h-16.00zM240.00 582.00h16.00v16.00h-16.00zM288.00 582.00h32.00v16.00h-32.00zM352.00 582.00h16.00v16.00h-16.00zM432.00 582.00h16.00v16.00h-16.00zM480.00 582.00h16.00v16.00h-16.00zM544.00 582.00h32.00v16.00h-32.00zM592.00 582.00h16.00v16.00h-16.00zM96.00 598.00h16.00v16.00h-16.00zM128.00 598.00h48.00v16.00h-48.00zM192.00 598.00h16.00v16.00h-16.00zM224.00 598.00h16.00v16.00h-16.00zM256.00 598.00h16.00v16.00h-16.00zM288.00 598.00h16.00v16.00h-16.00zM416.00 598.00h48.00v16.00h-48.00zM480.00 598.00h96.00v16.00h-96.00zM592.00 598.00h32.00v16.00h-32.00zM96.00 614.00h16.00v16.00h-16.00zM128.00 614.00h48.00v16.00h-48.00zM192.00 614.00h16.00v16.00h-16.00zM240.00 614.00h48.00v16.00h-48.00zM336.00 614.00h16.00v16.00h-16.00zM368.00 614.00h16.00v16.00h-16.00zM400.00 614.00h48.00v16.00h-48.00zM464.00 614.00h16.00v16.00h-16.00zM496.00 614.00h16.00v16.00h-16.00zM592.00 614.00h16.00v16.00h-16.00zM96.00 630.00h16.00v16.00h-16.00zM128.00 630.00h48.00v16.00h-48.00zM192.00 630.00h16.00v16.00h-16.00zM224.00 630.00h16.00v16.00h-16.00zM256.00 630.00h16.00v16.00h-16.00zM288.00 630.00h48.00v16.00h-48.00zM384.00 630.00h32.00v16.00h-32.00zM448.00 630.00h16.00v16.00h-16.00zM480.00 630.00h16.00v16.00h-16.00zM512.00 630.00h32.00v16.00h-32.00zM560.00 630.00h32.00v16.00h-32.00zM608.00 630.00h16.00v16.00h-16.00zM96.00 646.00h16.00v16.00h-16.00zM192.00 646.00h16.00v16.00h-16.00zM256.00 646.00h16.00v16.00h-16.00zM288.00 646.00h16.00v16.00h-16.00zM336.00 646.00h16.00v16.00h-16.00zM384.00 646.00h32.00v16.00h-32.00zM432.00 646.00h16.00v16.00h-16.00zM464.00 646.00h48.00v16.00h-48.00zM528.00 646.00h16.00v16.00h-16.00zM560.00 646.00h32.00v16.00h-32.00zM96.00 662.00h112.00v16.00h-112.00zM224.00 662.00h32.00v16.00h-32.00zM288.00 662.00h32.00v16.00h-32.00zM352.00 662.00h16.00v16.00h-16.00zM432.00 662.00h32.00v16.00h-32.00zM480.00 662.00h32.00v16.00h-32.00zM528.00 662.00h32.00v16.00h-32.00zM576.00 662.00h16.00v16.00h-16.00zM608.00 662.00h16.00v16.00h-16.00z" fill="#000"/><text x="120" y="784" font-family="Arial,Helvetica,sans-serif" font-size="26" font-weight="800" fill="#d8222a">VietQR</text><text x="600" y="784" text-anchor="end" font-family="Arial,Helvetica,sans-serif" font-size="26" font-weight="800" fill="#1d5f9f">napas 247</text><text x="360" y="824" text-anchor="middle" font-family="Arial,Helvetica,sans-serif" font-size="24" fill="#20252b">HUYNH CO KHO - 0071000956657</text></svg>